# xmcd
#
# Track frame offsets:
# 225
# 11549
# 24484
# 34643
# 46268
# 56468
# 68992
# 80689
# 91636
# 105593
#
# Disc length: 1569 seconds
#
#
# Revision: 0
# Processed by: cddbd v1.4PL0 Copyright (c) Steve Scherf et al.
# Submitted via: FreeRIP 2.00 
#
DISCID=6f061e0a
DTITLE=Brothers of Mercy - What a Friend...
DYEAR=2000
DGENRE=Blues
TTITLE0=Toiling bravely onward
TTITLE1=On Zion's Mount of radiant Light
TTITLE2=Safe in the Arms of Jesus
TTITLE3=To Christ the Lord be faithful
TTITLE4=What a Friend we have in Jesus
TTITLE5=Star to which I'm looking
TTITLE6=Blessed in the Peace to my Heart
TTITLE7=On the Mount of Bliss unending
TTITLE8=Sing them over again to me
TTITLE9=Jesus, Lover of my Soul
EXTD=www.brothers-of-mercy.de
EXTT0=
EXTT1=
EXTT2=
EXTT3=
EXTT4=
EXTT5=
EXTT6=
EXTT7=
EXTT8=
EXTT9=
PLAYORDER=
